# xmcd CD database file
#
# Track frame offsets:
#	150
#	14276
#	29971
#	44083
#	59570
#	73526
#	88404
#	101693
#	116557
#	132806
#	147398
#	160071
#	175987
#	190415
#	204463
#	217751
#
# Disc length: 3109 seconds
#
# Revision: 0
# Processed by: cddbd v1.5.1PL2 Copyright (c) Steve Scherf et al.
# Submitted via: CDex 1.51
#
DISCID=f60c2310
DTITLE=Bessie Smith - Chicago Bound Blues
DYEAR=2005
DGENRE=Blues
TTITLE0=Lady Luck Blues
TTITLE1=Outside Of That
TTITLE2=Keeps O A Rainin' (Pap, He Can't Make No Time)
TTITLE3=Down Hearted Blues
TTITLE4=Oh Daddy Blues
TTITLE5=Midnight Blues
TTITLE6=Baby Won't You Please Come Home
TTITLE7=Aggravatin' Papa
TTITLE8=If You Don't, I Know Who Will
TTITLE9=Jail House Blues
TTITLE10=Sam Jones Blues
TTITLE11=Nobody In Town Can Bake A Sweet Jelly Roll Like Mine
TTITLE12=Yodling Blues
TTITLE13=Bleeding Hearted Blues
TTITLE14=Mama's Got The Blues
TTITLE15=Taint Nobody's Bizness If I Do
EXTD=YEAR: 2005
EXTT0=
EXTT1=
EXTT2=
EXTT3=
EXTT4=
EXTT5=
EXTT6=
EXTT7=
EXTT8=
EXTT9=
EXTT10=
EXTT11=
EXTT12=
EXTT13=
EXTT14=
EXTT15=
PLAYORDER=
